<svg aria-hidden="true" style="position: absolute; width: 0; height: 0; overflow: hidden;" version="1.1" xmlns="http://www.w3.org/2000/svg" xmlns:xlink="http://www.w3.org/1999/xlink">
<defs>
<symbol id="icon-cloudy" viewBox="0 0 32 32">
<path fill="#91c0f8" style="fill: var(--color1, #91c0f8); stroke: var(--color2, #fff)" stroke="#fff" stroke-linejoin="round" stroke-linecap="butt" stroke-miterlimit="4" stroke-width="0.6" d="M19.31 11.62c0-1.38-1.11-2.46-2.46-2.46-0.3 0-0.57 0.060-0.84 0.15-0.090-1.020-0.93-1.86-1.98-1.86-1.11 0-2.010 0.9-2.010 2.010 0 0.24 0.060 0.48 0.12 0.69-0.090-0.030-0.21-0.030-0.3-0.030-1.11 0-2.010 0.9-2.010 2.010 0 1.080 0.87 1.98 1.95 2.010h5.16c1.32-0.15 2.37-1.2 2.37-2.52z"></path>
<path fill="#57a0ee" style="fill: var(--color3, #57a0ee); stroke: var(--color2, #fff)" stroke="#fff" stroke-linejoin="round" stroke-linecap="butt" stroke-miterlimit="4" stroke-width="0.6" d="M23.85 17.2c0-2.3-1.85-4.1-4.1-4.1-0.5 0-0.95 0.1-1.4 0.25-0.15-1.7-1.55-3.1-3.3-3.1-1.85 0-3.35 1.5-3.35 3.35 0 0.4 0.1 0.8 0.2 1.15-0.15-0.050-0.35-0.050-0.5-0.050-1.85 0-3.35 1.5-3.35 3.35 0 1.8 1.45 3.3 3.25 3.35h8.6c2.2-0.25 3.95-2 3.95-4.2z"></path>
</symbol>
<symbol id="icon-cloudy-day-1" viewBox="0 0 32 32">
<path fill="none" stroke="#ffa500" style="stroke: var(--color4, #ffa500)" stroke-linejoin="miter" stroke-linecap="round" stroke-miterlimit="4" stroke-width="1" d="M10 17.5v1.5"></path>
<path fill="none" stroke="#ffa500" style="stroke: var(--color4, #ffa500)" stroke-linejoin="miter" stroke-linecap="round" stroke-miterlimit="4" stroke-width="1" d="M6.818 16.182l-1.061 1.061"></path>
<path fill="none" stroke="#ffa500" style="stroke: var(--color4, #ffa500)" stroke-linejoin="miter" stroke-linecap="round" stroke-miterlimit="4" stroke-width="1" d="M5.5 13h-1.5"></path>
<path fill="none" stroke="#ffa500" style="stroke: var(--color4, #ffa500)" stroke-linejoin="miter" stroke-linecap="round" stroke-miterlimit="4" stroke-width="1" d="M6.818 9.818l-1.061-1.061"></path>
<path fill="none" stroke="#ffa500" style="stroke: var(--color4, #ffa500)" stroke-linejoin="miter" stroke-linecap="round" stroke-miterlimit="4" stroke-width="1" d="M10 8.5v-1.5"></path>
<path fill="none" stroke="#ffa500" style="stroke: var(--color4, #ffa500)" stroke-linejoin="miter" stroke-linecap="round" stroke-miterlimit="4" stroke-width="1" d="M13.182 9.818l1.061-1.061"></path>
<path fill="none" stroke="#ffa500" style="stroke: var(--color4, #ffa500)" stroke-linejoin="miter" stroke-linecap="round" stroke-miterlimit="4" stroke-width="1" d="M14.5 13h1.5"></path>
<path fill="none" stroke="#ffa500" style="stroke: var(--color4, #ffa500)" stroke-linejoin="miter" stroke-linecap="round" stroke-miterlimit="4" stroke-width="1" d="M13.182 16.182l1.061 1.061"></path>
<path fill="#ffa500" style="fill: var(--color4, #ffa500); stroke: var(--color4, #ffa500)" stroke="#ffa500" stroke-linejoin="miter" stroke-linecap="butt" stroke-miterlimit="4" stroke-width="1" d="M12.5 13c0 1.381-1.119 2.5-2.5 2.5s-2.5-1.119-2.5-2.5c0-1.381 1.119-2.5 2.5-2.5s2.5 1.119 2.5 2.5z"></path>
<path fill="#c6deff" style="fill: var(--color5, #c6deff); stroke: var(--color2, #fff)" stroke="#fff" stroke-linejoin="round" stroke-linecap="butt" stroke-miterlimit="4" stroke-width="0.6" d="M23.85 17.2c0-2.3-1.85-4.1-4.1-4.1-0.5 0-0.95 0.1-1.4 0.25-0.15-1.7-1.55-3.1-3.3-3.1-1.85 0-3.35 1.5-3.35 3.35 0 0.4 0.1 0.8 0.2 1.15-0.15-0.050-0.35-0.050-0.5-0.050-1.85 0-3.35 1.5-3.35 3.35 0 1.8 1.45 3.3 3.25 3.35h8.6c2.2-0.25 3.95-2 3.95-4.2z"></path>
</symbol>
<symbol id="icon-cloudy-night-1" viewBox="0 0 32 32">
<path fill="#ffa500" style="fill: var(--color4, #ffa500)" d="M19.32 7.6l0.28 0.48 0.48 0.24-0.48 0.28-0.28 0.48-0.24-0.48-0.48-0.28 0.48-0.24z"></path>
<path fill="#ffa500" style="fill: var(--color4, #ffa500)" d="M27.32 11.6l0.28 0.48 0.48 0.24-0.48 0.28-0.28 0.48-0.24-0.48-0.48-0.28 0.48-0.24z"></path>
<path fill="#ffa500" style="fill: var(--color4, #ffa500); stroke: var(--color4, #ffa500)" stroke="#ffa500" stroke-linejoin="round" stroke-linecap="butt" stroke-miterlimit="4" stroke-width="1" d="M23.8 12.28c0-1.48 0.8-2.76 2-3.48-0.6-0.36-1.28-0.52-2-0.52-2.2 0-4 1.8-4 4s1.8 4 4 4c0.72 0 1.4-0.2 2-0.52-1.2-0.68-2-2-2-3.48z"></path>
<path fill="#c6deff" style="fill: var(--color5, #c6deff); stroke: var(--color2, #fff)" stroke="#fff" stroke-linejoin="round" stroke-linecap="butt" stroke-miterlimit="4" stroke-width="0.6" d="M23.85 17.2c0-2.3-1.85-4.1-4.1-4.1-0.5 0-0.95 0.1-1.4 0.25-0.15-1.7-1.55-3.1-3.3-3.1-1.85 0-3.35 1.5-3.35 3.35 0 0.4 0.1 0.8 0.2 1.15-0.15-0.050-0.35-0.050-0.5-0.050-1.85 0-3.35 1.5-3.35 3.35 0 1.8 1.45 3.3 3.25 3.35h8.6c2.2-0.25 3.95-2 3.95-4.2z"></path>
</symbol>
<symbol id="icon-day" viewBox="0 0 32 32">
<path fill="none" stroke="#ffa500" style="stroke: var(--color4, #ffa500)" stroke-linejoin="miter" stroke-linecap="round" stroke-miterlimit="4" stroke-width="1" d="M16 20.5v1.5"></path>
<path fill="none" stroke="#ffa500" style="stroke: var(--color4, #ffa500)" stroke-linejoin="miter" stroke-linecap="round" stroke-miterlimit="4" stroke-width="1" d="M12.818 19.182l-1.061 1.061"></path>
<path fill="none" stroke="#ffa500" style="stroke: var(--color4, #ffa500)" stroke-linejoin="miter" stroke-linecap="round" stroke-miterlimit="4" stroke-width="1" d="M11.5 16h-1.5"></path>
<path fill="none" stroke="#ffa500" style="stroke: var(--color4, #ffa500)" stroke-linejoin="miter" stroke-linecap="round" stroke-miterlimit="4" stroke-width="1" d="M12.818 12.818l-1.061-1.061"></path>
<path fill="none" stroke="#ffa500" style="stroke: var(--color4, #ffa500)" stroke-linejoin="miter" stroke-linecap="round" stroke-miterlimit="4" stroke-width="1" d="M16 11.5v-1.5"></path>
<path fill="none" stroke="#ffa500" style="stroke: var(--color4, #ffa500)" stroke-linejoin="miter" stroke-linecap="round" stroke-miterlimit="4" stroke-width="1" d="M19.182 12.818l1.061-1.061"></path>
<path fill="none" stroke="#ffa500" style="stroke: var(--color4, #ffa500)" stroke-linejoin="miter" stroke-linecap="round" stroke-miterlimit="4" stroke-width="1" d="M20.5 16h1.5"></path>
<path fill="none" stroke="#ffa500" style="stroke: var(--color4, #ffa500)" stroke-linejoin="miter" stroke-linecap="round" stroke-miterlimit="4" stroke-width="1" d="M19.182 19.182l1.061 1.061"></path>
<path fill="#ffa500" style="fill: var(--color4, #ffa500); stroke: var(--color4, #ffa500)" stroke="#ffa500" stroke-linejoin="miter" stroke-linecap="butt" stroke-miterlimit="4" stroke-width="1" d="M18.5 16c0 1.381-1.119 2.5-2.5 2.5s-2.5-1.119-2.5-2.5c0-1.381 1.119-2.5 2.5-2.5s2.5 1.119 2.5 2.5z"></path>
</symbol>
<symbol id="icon-night" viewBox="0 0 32 32">
<path fill="#ffa500" style="fill: var(--color4, #ffa500)" d="M11.65 10.75l0.35 0.6 0.6 0.3-0.6 0.35-0.35 0.6-0.3-0.6-0.6-0.35 0.6-0.3z"></path>
<path fill="#ffa500" style="fill: var(--color4, #ffa500)" d="M21.65 15.75l0.35 0.6 0.6 0.3-0.6 0.35-0.35 0.6-0.3-0.6-0.6-0.35 0.6-0.3z"></path>
<path fill="#ffa500" style="fill: var(--color4, #ffa500); stroke: var(--color4, #ffa500)" stroke="#ffa500" stroke-linejoin="round" stroke-linecap="butt" stroke-miterlimit="4" stroke-width="1" d="M17.25 16.6c0-1.85 1-3.45 2.5-4.35-0.75-0.45-1.6-0.65-2.5-0.65-2.75 0-5 2.25-5 5s2.25 5 5 5c0.9 0 1.75-0.25 2.5-0.65-1.5-0.85-2.5-2.5-2.5-4.35z"></path>
</symbol>
<symbol id="icon-rainy-1" viewBox="0 0 32 32">
<path fill="none" stroke="#ffa500" style="stroke: var(--color4, #ffa500)" stroke-linejoin="miter" stroke-linecap="round" stroke-miterlimit="4" stroke-width="1" d="M10 18.4v1.8"></path>
<path fill="none" stroke="#ffa500" style="stroke: var(--color4, #ffa500)" stroke-linejoin="miter" stroke-linecap="round" stroke-miterlimit="4" stroke-width="1" d="M6.182 16.818l-1.273 1.273"></path>
<path fill="none" stroke="#ffa500" style="stroke: var(--color4, #ffa500)" stroke-linejoin="miter" stroke-linecap="round" stroke-miterlimit="4" stroke-width="1" d="M4.6 13h-1.8"></path>
<path fill="none" stroke="#ffa500" style="stroke: var(--color4, #ffa500)" stroke-linejoin="miter" stroke-linecap="round" stroke-miterlimit="4" stroke-width="1" d="M6.182 9.182l-1.273-1.273"></path>
<path fill="none" stroke="#ffa500" style="stroke: var(--color4, #ffa500)" stroke-linejoin="miter" stroke-linecap="round" stroke-miterlimit="4" stroke-width="1" d="M10 7.6v-1.8"></path>
<path fill="none" stroke="#ffa500" style="stroke: var(--color4, #ffa500)" stroke-linejoin="miter" stroke-linecap="round" stroke-miterlimit="4" stroke-width="1" d="M13.818 9.182l1.273-1.273"></path>
<path fill="none" stroke="#ffa500" style="stroke: var(--color4, #ffa500)" stroke-linejoin="miter" stroke-linecap="round" stroke-miterlimit="4" stroke-width="1" d="M15.4 13h1.8"></path>
<path fill="none" stroke="#ffa500" style="stroke: var(--color4, #ffa500)" stroke-linejoin="miter" stroke-linecap="round" stroke-miterlimit="4" stroke-width="1" d="M13.818 16.818l1.273 1.273"></path>
<path fill="#ffa500" style="fill: var(--color4, #ffa500); stroke: var(--color4, #ffa500)" stroke="#ffa500" stroke-linejoin="miter" stroke-linecap="butt" stroke-miterlimit="4" stroke-width="1" d="M13 13c0 1.657-1.343 3-3 3s-3-1.343-3-3c0-1.657 1.343-3 3-3s3 1.343 3 3z"></path>
<path fill="#57a0ee" style="fill: var(--color3, #57a0ee); stroke: var(--color2, #fff)" stroke="#fff" stroke-linejoin="round" stroke-linecap="butt" stroke-miterlimit="4" stroke-width="0.75" d="M22.773 17.545c0-1.955-1.573-3.485-3.485-3.485-0.425 0-0.808 0.085-1.19 0.213-0.128-1.445-1.317-2.635-2.805-2.635-1.572 0-2.848 1.275-2.848 2.848 0 0.34 0.085 0.68 0.17 0.977-0.127-0.043-0.297-0.043-0.425-0.043-1.572 0-2.848 1.275-2.848 2.848 0 1.53 1.232 2.805 2.763 2.848h7.31c1.87-0.212 3.358-1.7 3.358-3.57z"></path>
<path fill="none" stroke="#91c0f8" style="stroke: var(--color1, #91c0f8)" stroke-linejoin="miter" stroke-linecap="round" stroke-miterlimit="4" stroke-width="1" d="M13.959 22.971l-0.695 3.939"></path>
<path fill="none" stroke="#91c0f8" style="stroke: var(--color1, #91c0f8)" stroke-linejoin="miter" stroke-linecap="round" stroke-miterlimit="4" stroke-width="1" d="M17.087 22.508l-0.695 3.939"></path>
</symbol>
<symbol id="icon-rainy-2" viewBox="0 0 32 32">
<path fill="none" stroke="#ffa500" style="stroke: var(--color4, #ffa500)" stroke-linejoin="miter" stroke-linecap="round" stroke-miterlimit="4" stroke-width="1" d="M10 17.5v1.5"></path>
<path fill="none" stroke="#ffa500" style="stroke: var(--color4, #ffa500)" stroke-linejoin="miter" stroke-linecap="round" stroke-miterlimit="4" stroke-width="1" d="M6.818 16.182l-1.061 1.061"></path>
<path fill="none" stroke="#ffa500" style="stroke: var(--color4, #ffa500)" stroke-linejoin="miter" stroke-linecap="round" stroke-miterlimit="4" stroke-width="1" d="M5.5 13h-1.5"></path>
<path fill="none" stroke="#ffa500" style="stroke: var(--color4, #ffa500)" stroke-linejoin="miter" stroke-linecap="round" stroke-miterlimit="4" stroke-width="1" d="M6.818 9.818l-1.061-1.061"></path>
<path fill="none" stroke="#ffa500" style="stroke: var(--color4, #ffa500)" stroke-linejoin="miter" stroke-linecap="round" stroke-miterlimit="4" stroke-width="1" d="M10 8.5v-1.5"></path>
<path fill="none" stroke="#ffa500" style="stroke: var(--color4, #ffa500)" stroke-linejoin="miter" stroke-linecap="round" stroke-miterlimit="4" stroke-width="1" d="M13.182 9.818l1.061-1.061"></path>
<path fill="none" stroke="#ffa500" style="stroke: var(--color4, #ffa500)" stroke-linejoin="miter" stroke-linecap="round" stroke-miterlimit="4" stroke-width="1" d="M14.5 13h1.5"></path>
<path fill="none" stroke="#ffa500" style="stroke: var(--color4, #ffa500)" stroke-linejoin="miter" stroke-linecap="round" stroke-miterlimit="4" stroke-width="1" d="M13.182 16.182l1.061 1.061"></path>
<path fill="#ffa500" style="fill: var(--color4, #ffa500); stroke: var(--color4, #ffa500)" stroke="#ffa500" stroke-linejoin="miter" stroke-linecap="butt" stroke-miterlimit="4" stroke-width="1" d="M12.5 13c0 1.381-1.119 2.5-2.5 2.5s-2.5-1.119-2.5-2.5c0-1.381 1.119-2.5 2.5-2.5s2.5 1.119 2.5 2.5z"></path>
<path fill="#57a0ee" style="fill: var(--color3, #57a0ee); stroke: var(--color2, #fff)" stroke="#fff" stroke-linejoin="round" stroke-linecap="butt" stroke-miterlimit="4" stroke-width="0.6" d="M23.85 17.2c0-2.3-1.85-4.1-4.1-4.1-0.5 0-0.95 0.1-1.4 0.25-0.15-1.7-1.55-3.1-3.3-3.1-1.85 0-3.35 1.5-3.35 3.35 0 0.4 0.1 0.8 0.2 1.15-0.15-0.050-0.35-0.050-0.5-0.050-1.85 0-3.35 1.5-3.35 3.35 0 1.8 1.45 3.3 3.25 3.35h8.6c2.2-0.25 3.95-2 3.95-4.2z"></path>
<path fill="none" stroke="#91c0f8" style="stroke: var(--color1, #91c0f8)" stroke-linejoin="miter" stroke-linecap="round" stroke-miterlimit="4" stroke-width="1" d="M15.459 22.471l-0.695 3.939"></path>
</symbol>
<symbol id="icon-rainy-3" viewBox="0 0 32 32">
<path fill="#57a0ee" style="fill: var(--color3, #57a0ee); stroke: var(--color2, #fff)" stroke="#fff" stroke-linejoin="round" stroke-linecap="butt" stroke-miterlimit="4" stroke-width="0.6" d="M23.85 17.2c0-2.3-1.85-4.1-4.1-4.1-0.5 0-0.95 0.1-1.4 0.25-0.15-1.7-1.55-3.1-3.3-3.1-1.85 0-3.35 1.5-3.35 3.35 0 0.4 0.1 0.8 0.2 1.15-0.15-0.050-0.35-0.050-0.5-0.050-1.85 0-3.35 1.5-3.35 3.35 0 1.8 1.45 3.3 3.25 3.35h8.6c2.2-0.25 3.95-2 3.95-4.2z"></path>
<path fill="none" stroke="#91c0f8" style="stroke: var(--color1, #91c0f8)" stroke-linejoin="miter" stroke-linecap="round" stroke-miterlimit="4" stroke-width="1" d="M15.459 22.471l-0.695 3.939"></path>
</symbol>
<symbol id="icon-rainy-4" viewBox="0 0 32 32">
<path fill="#57a0ee" style="fill: var(--color3, #57a0ee); stroke: var(--color2, #fff)" stroke="#fff" stroke-linejoin="round" stroke-linecap="butt" stroke-miterlimit="4" stroke-width="0.6" d="M23.85 17.2c0-2.3-1.85-4.1-4.1-4.1-0.5 0-0.95 0.1-1.4 0.25-0.15-1.7-1.55-3.1-3.3-3.1-1.85 0-3.35 1.5-3.35 3.35 0 0.4 0.1 0.8 0.2 1.15-0.15-0.050-0.35-0.050-0.5-0.050-1.85 0-3.35 1.5-3.35 3.35 0 1.8 1.45 3.3 3.25 3.35h8.6c2.2-0.25 3.95-2 3.95-4.2z"></path>
<path fill="none" stroke="#91c0f8" style="stroke: var(--color1, #91c0f8)" stroke-linejoin="miter" stroke-linecap="round" stroke-miterlimit="4" stroke-width="1" d="M13.959 22.971l-0.695 3.939"></path>
<path fill="none" stroke="#91c0f8" style="stroke: var(--color1, #91c0f8)" stroke-linejoin="miter" stroke-linecap="round" stroke-miterlimit="4" stroke-width="1" d="M17.087 22.508l-0.695 3.939"></path>
</symbol>
<symbol id="icon-rainy-5" viewBox="0 0 32 32">
<path fill="#57a0ee" style="fill: var(--color3, #57a0ee); stroke: var(--color2, #fff)" stroke="#fff" stroke-linejoin="round" stroke-linecap="butt" stroke-miterlimit="4" stroke-width="0.6" d="M23.85 17.2c0-2.3-1.85-4.1-4.1-4.1-0.5 0-0.95 0.1-1.4 0.25-0.15-1.7-1.55-3.1-3.3-3.1-1.85 0-3.35 1.5-3.35 3.35 0 0.4 0.1 0.8 0.2 1.15-0.15-0.050-0.35-0.050-0.5-0.050-1.85 0-3.35 1.5-3.35 3.35 0 1.8 1.45 3.3 3.25 3.35h8.6c2.2-0.25 3.95-2 3.95-4.2z"></path>
<path fill="none" stroke="#91c0f8" style="stroke: var(--color1, #91c0f8)" stroke-linejoin="miter" stroke-linecap="round" stroke-miterlimit="4" stroke-width="1" d="M13.444 23.145l-0.695 3.939"></path>
<path fill="none" stroke="#91c0f8" style="stroke: var(--color1, #91c0f8)" stroke-linejoin="miter" stroke-linecap="round" stroke-miterlimit="4" stroke-width="1" d="M15.587 22.508l-0.695 3.939"></path>
<path fill="none" stroke="#91c0f8" style="stroke: var(--color1, #91c0f8)" stroke-linejoin="miter" stroke-linecap="round" stroke-miterlimit="4" stroke-width="1" d="M17.47 23.347l-0.695 3.939"></path>
</symbol>
<symbol id="icon-snowy-1" viewBox="0 0 32 32">
<path fill="none" stroke="#ffa500" style="stroke: var(--color4, #ffa500)" stroke-linejoin="miter" stroke-linecap="round" stroke-miterlimit="4" stroke-width="1" d="M10 18.4v1.8"></path>
<path fill="none" stroke="#ffa500" style="stroke: var(--color4, #ffa500)" stroke-linejoin="miter" stroke-linecap="round" stroke-miterlimit="4" stroke-width="1" d="M6.182 16.818l-1.273 1.273"></path>
<path fill="none" stroke="#ffa500" style="stroke: var(--color4, #ffa500)" stroke-linejoin="miter" stroke-linecap="round" stroke-miterlimit="4" stroke-width="1" d="M4.6 13h-1.8"></path>
<path fill="none" stroke="#ffa500" style="stroke: var(--color4, #ffa500)" stroke-linejoin="miter" stroke-linecap="round" stroke-miterlimit="4" stroke-width="1" d="M6.182 9.182l-1.273-1.273"></path>
<path fill="none" stroke="#ffa500" style="stroke: var(--color4, #ffa500)" stroke-linejoin="miter" stroke-linecap="round" stroke-miterlimit="4" stroke-width="1" d="M10 7.6v-1.8"></path>
<path fill="none" stroke="#ffa500" style="stroke: var(--color4, #ffa500)" stroke-linejoin="miter" stroke-linecap="round" stroke-miterlimit="4" stroke-width="1" d="M13.818 9.182l1.273-1.273"></path>
<path fill="none" stroke="#ffa500" style="stroke: var(--color4, #ffa500)" stroke-linejoin="miter" stroke-linecap="round" stroke-miterlimit="4" stroke-width="1" d="M15.4 13h1.8"></path>
<path fill="none" stroke="#ffa500" style="stroke: var(--color4, #ffa500)" stroke-linejoin="miter" stroke-linecap="round" stroke-miterlimit="4" stroke-width="1" d="M13.818 16.818l1.273 1.273"></path>
<path fill="#ffa500" style="fill: var(--color4, #ffa500); stroke: var(--color4, #ffa500)" stroke="#ffa500" stroke-linejoin="miter" stroke-linecap="butt" stroke-miterlimit="4" stroke-width="1" d="M13 13c0 1.657-1.343 3-3 3s-3-1.343-3-3c0-1.657 1.343-3 3-3s3 1.343 3 3z"></path>
<path fill="#57a0ee" style="fill: var(--color3, #57a0ee); stroke: var(--color2, #fff)" stroke="#fff" stroke-linejoin="round" stroke-linecap="butt" stroke-miterlimit="4" stroke-width="0.75" d="M22.773 17.545c0-1.955-1.573-3.485-3.485-3.485-0.425 0-0.808 0.085-1.19 0.213-0.128-1.445-1.317-2.635-2.805-2.635-1.572 0-2.848 1.275-2.848 2.848 0 0.34 0.085 0.68 0.17 0.977-0.127-0.043-0.297-0.043-0.425-0.043-1.572 0-2.848 1.275-2.848 2.848 0 1.53 1.232 2.805 2.763 2.848h7.31c1.87-0.212 3.358-1.7 3.358-3.57z"></path>
<path fill="none" stroke="#57a0ee" style="stroke: var(--color3, #57a0ee)" stroke-linejoin="miter" stroke-linecap="round" stroke-miterlimit="4" stroke-width="0.6" d="M13.5 21.75v2.5"></path>
<path fill="none" stroke="#57a0ee" style="stroke: var(--color3, #57a0ee)" stroke-linejoin="miter" stroke-linecap="round" stroke-miterlimit="4" stroke-width="0.5" d="M14.384 22.116l-1.768 1.768"></path>
<path fill="none" stroke="#57a0ee" style="stroke: var(--color3, #57a0ee)" stroke-linejoin="miter" stroke-linecap="round" stroke-miterlimit="4" stroke-width="0.5" d="M14.75 23h-2.5"></path>
<path fill="none" stroke="#57a0ee" style="stroke: var(--color3, #57a0ee)" stroke-linejoin="miter" stroke-linecap="round" stroke-miterlimit="4" stroke-width="0.5" d="M14.384 23.884l-1.768-1.768"></path>
<path fill="none" stroke="#57a0ee" style="stroke: var(--color3, #57a0ee)" stroke-linejoin="miter" stroke-linecap="round" stroke-miterlimit="4" stroke-width="0.6" d="M18 21.75v2.5"></path>
<path fill="none" stroke="#57a0ee" style="stroke: var(--color3, #57a0ee)" stroke-linejoin="miter" stroke-linecap="round" stroke-miterlimit="4" stroke-width="0.5" d="M18.884 22.116l-1.768 1.768"></path>
<path fill="none" stroke="#57a0ee" style="stroke: var(--color3, #57a0ee)" stroke-linejoin="miter" stroke-linecap="round" stroke-miterlimit="4" stroke-width="0.5" d="M19.25 23h-2.5"></path>
<path fill="none" stroke="#57a0ee" style="stroke: var(--color3, #57a0ee)" stroke-linejoin="miter" stroke-linecap="round" stroke-miterlimit="4" stroke-width="0.5" d="M18.884 23.884l-1.768-1.768"></path>
</symbol>
<symbol id="icon-snowy-2" viewBox="0 0 32 32">
<path fill="none" stroke="#ffa500" style="stroke: var(--color4, #ffa500)" stroke-linejoin="miter" stroke-linecap="round" stroke-miterlimit="4" stroke-width="1" d="M10 17.5v1.5"></path>
<path fill="none" stroke="#ffa500" style="stroke: var(--color4, #ffa500)" stroke-linejoin="miter" stroke-linecap="round" stroke-miterlimit="4" stroke-width="1" d="M6.818 16.182l-1.061 1.061"></path>
<path fill="none" stroke="#ffa500" style="stroke: var(--color4, #ffa500)" stroke-linejoin="miter" stroke-linecap="round" stroke-miterlimit="4" stroke-width="1" d="M5.5 13h-1.5"></path>
<path fill="none" stroke="#ffa500" style="stroke: var(--color4, #ffa500)" stroke-linejoin="miter" stroke-linecap="round" stroke-miterlimit="4" stroke-width="1" d="M6.818 9.818l-1.061-1.061"></path>
<path fill="none" stroke="#ffa500" style="stroke: var(--color4, #ffa500)" stroke-linejoin="miter" stroke-linecap="round" stroke-miterlimit="4" stroke-width="1" d="M10 8.5v-1.5"></path>
<path fill="none" stroke="#ffa500" style="stroke: var(--color4, #ffa500)" stroke-linejoin="miter" stroke-linecap="round" stroke-miterlimit="4" stroke-width="1" d="M13.182 9.818l1.061-1.061"></path>
<path fill="none" stroke="#ffa500" style="stroke: var(--color4, #ffa500)" stroke-linejoin="miter" stroke-linecap="round" stroke-miterlimit="4" stroke-width="1" d="M14.5 13h1.5"></path>
<path fill="none" stroke="#ffa500" style="stroke: var(--color4, #ffa500)" stroke-linejoin="miter" stroke-linecap="round" stroke-miterlimit="4" stroke-width="1" d="M13.182 16.182l1.061 1.061"></path>
<path fill="#ffa500" style="fill: var(--color4, #ffa500); stroke: var(--color4, #ffa500)" stroke="#ffa500" stroke-linejoin="miter" stroke-linecap="butt" stroke-miterlimit="4" stroke-width="1" d="M12.5 13c0 1.381-1.119 2.5-2.5 2.5s-2.5-1.119-2.5-2.5c0-1.381 1.119-2.5 2.5-2.5s2.5 1.119 2.5 2.5z"></path>
<path fill="#57a0ee" style="fill: var(--color3, #57a0ee); stroke: var(--color2, #fff)" stroke="#fff" stroke-linejoin="round" stroke-linecap="butt" stroke-miterlimit="4" stroke-width="0.6" d="M23.85 17.2c0-2.3-1.85-4.1-4.1-4.1-0.5 0-0.95 0.1-1.4 0.25-0.15-1.7-1.55-3.1-3.3-3.1-1.85 0-3.35 1.5-3.35 3.35 0 0.4 0.1 0.8 0.2 1.15-0.15-0.050-0.35-0.050-0.5-0.050-1.85 0-3.35 1.5-3.35 3.35 0 1.8 1.45 3.3 3.25 3.35h8.6c2.2-0.25 3.95-2 3.95-4.2z"></path>
<path fill="none" stroke="#57a0ee" style="stroke: var(--color3, #57a0ee)" stroke-linejoin="miter" stroke-linecap="round" stroke-miterlimit="4" stroke-width="0.6" d="M16 22.25v2.5"></path>
<path fill="none" stroke="#57a0ee" style="stroke: var(--color3, #57a0ee)" stroke-linejoin="miter" stroke-linecap="round" stroke-miterlimit="4" stroke-width="0.5" d="M16.884 22.616l-1.768 1.768"></path>
<path fill="none" stroke="#57a0ee" style="stroke: var(--color3, #57a0ee)" stroke-linejoin="miter" stroke-linecap="round" stroke-miterlimit="4" stroke-width="0.5" d="M17.25 23.5h-2.5"></path>
<path fill="none" stroke="#57a0ee" style="stroke: var(--color3, #57a0ee)" stroke-linejoin="miter" stroke-linecap="round" stroke-miterlimit="4" stroke-width="0.5" d="M16.884 24.384l-1.768-1.768"></path>
</symbol>
<symbol id="icon-snowy-3" viewBox="0 0 32 32">
<path fill="#57a0ee" style="fill: var(--color3, #57a0ee); stroke: var(--color2, #fff)" stroke="#fff" stroke-linejoin="round" stroke-linecap="butt" stroke-miterlimit="4" stroke-width="0.6" d="M23.85 17.2c0-2.3-1.85-4.1-4.1-4.1-0.5 0-0.95 0.1-1.4 0.25-0.15-1.7-1.55-3.1-3.3-3.1-1.85 0-3.35 1.5-3.35 3.35 0 0.4 0.1 0.8 0.2 1.15-0.15-0.050-0.35-0.050-0.5-0.050-1.85 0-3.35 1.5-3.35 3.35 0 1.8 1.45 3.3 3.25 3.35h8.6c2.2-0.25 3.95-2 3.95-4.2z"></path>
<path fill="none" stroke="#57a0ee" style="stroke: var(--color3, #57a0ee)" stroke-linejoin="miter" stroke-linecap="round" stroke-miterlimit="4" stroke-width="0.6" d="M15.5 22.25v2.5"></path>
<path fill="none" stroke="#57a0ee" style="stroke: var(--color3, #57a0ee)" stroke-linejoin="miter" stroke-linecap="round" stroke-miterlimit="4" stroke-width="0.5" d="M16.384 22.616l-1.768 1.768"></path>
<path fill="none" stroke="#57a0ee" style="stroke: var(--color3, #57a0ee)" stroke-linejoin="miter" stroke-linecap="round" stroke-miterlimit="4" stroke-width="0.5" d="M16.75 23.5h-2.5"></path>
<path fill="none" stroke="#57a0ee" style="stroke: var(--color3, #57a0ee)" stroke-linejoin="miter" stroke-linecap="round" stroke-miterlimit="4" stroke-width="0.5" d="M16.384 24.384l-1.768-1.768"></path>
</symbol>
<symbol id="icon-snowy-4" viewBox="0 0 32 32">
<path fill="#57a0ee" style="fill: var(--color3, #57a0ee); stroke: var(--color2, #fff)" stroke="#fff" stroke-linejoin="round" stroke-linecap="butt" stroke-miterlimit="4" stroke-width="0.6" d="M23.85 17.2c0-2.3-1.85-4.1-4.1-4.1-0.5 0-0.95 0.1-1.4 0.25-0.15-1.7-1.55-3.1-3.3-3.1-1.85 0-3.35 1.5-3.35 3.35 0 0.4 0.1 0.8 0.2 1.15-0.15-0.050-0.35-0.050-0.5-0.050-1.85 0-3.35 1.5-3.35 3.35 0 1.8 1.45 3.3 3.25 3.35h8.6c2.2-0.25 3.95-2 3.95-4.2z"></path>
<path fill="none" stroke="#57a0ee" style="stroke: var(--color3, #57a0ee)" stroke-linejoin="miter" stroke-linecap="round" stroke-miterlimit="4" stroke-width="0.6" d="M11.5 22.25v2.5"></path>
<path fill="none" stroke="#57a0ee" style="stroke: var(--color3, #57a0ee)" stroke-linejoin="miter" stroke-linecap="round" stroke-miterlimit="4" stroke-width="0.5" d="M12.384 22.616l-1.768 1.768"></path>
<path fill="none" stroke="#57a0ee" style="stroke: var(--color3, #57a0ee)" stroke-linejoin="miter" stroke-linecap="round" stroke-miterlimit="4" stroke-width="0.5" d="M12.75 23.5h-2.5"></path>
<path fill="none" stroke="#57a0ee" style="stroke: var(--color3, #57a0ee)" stroke-linejoin="miter" stroke-linecap="round" stroke-miterlimit="4" stroke-width="0.5" d="M12.384 24.384l-1.768-1.768"></path>
<path fill="none" stroke="#57a0ee" style="stroke: var(--color3, #57a0ee)" stroke-linejoin="miter" stroke-linecap="round" stroke-miterlimit="4" stroke-width="0.6" d="M15.5 22.25v2.5"></path>
<path fill="none" stroke="#57a0ee" style="stroke: var(--color3, #57a0ee)" stroke-linejoin="miter" stroke-linecap="round" stroke-miterlimit="4" stroke-width="0.5" d="M16.384 22.616l-1.768 1.768"></path>
<path fill="none" stroke="#57a0ee" style="stroke: var(--color3, #57a0ee)" stroke-linejoin="miter" stroke-linecap="round" stroke-miterlimit="4" stroke-width="0.5" d="M16.75 23.5h-2.5"></path>
<path fill="none" stroke="#57a0ee" style="stroke: var(--color3, #57a0ee)" stroke-linejoin="miter" stroke-linecap="round" stroke-miterlimit="4" stroke-width="0.5" d="M16.384 24.384l-1.768-1.768"></path>
<path fill="none" stroke="#57a0ee" style="stroke: var(--color3, #57a0ee)" stroke-linejoin="miter" stroke-linecap="round" stroke-miterlimit="4" stroke-width="0.6" d="M20 22.25v2.5"></path>
<path fill="none" stroke="#57a0ee" style="stroke: var(--color3, #57a0ee)" stroke-linejoin="miter" stroke-linecap="round" stroke-miterlimit="4" stroke-width="0.5" d="M20.884 22.616l-1.768 1.768"></path>
<path fill="none" stroke="#57a0ee" style="stroke: var(--color3, #57a0ee)" stroke-linejoin="miter" stroke-linecap="round" stroke-miterlimit="4" stroke-width="0.5" d="M21.25 23.5h-2.5"></path>
<path fill="none" stroke="#57a0ee" style="stroke: var(--color3, #57a0ee)" stroke-linejoin="miter" stroke-linecap="round" stroke-miterlimit="4" stroke-width="0.5" d="M20.884 24.384l-1.768-1.768"></path>
</symbol>
<symbol id="icon-sunrise" viewBox="0 0 32 32">
<path d="M10.667 18.667c0-2.946 2.388-5.333 5.333-5.333s5.333 2.388 5.333 5.333v0zM24.943 11.057c-0.241-0.241-0.575-0.39-0.943-0.39s-0.701 0.149-0.943 0.39l-0.943 0.943c-0.251 0.243-0.407 0.583-0.407 0.959 0 0.736 0.597 1.333 1.333 1.333 0.376 0 0.716-0.156 0.959-0.407l0.943-0.943c0.241-0.241 0.39-0.575 0.39-0.943s-0.149-0.701-0.39-0.943v0zM28 16h-1.333c-0.736 0-1.333 0.597-1.333 1.333s0.597 1.333 1.333 1.333v0h1.333c0.736 0 1.333-0.597 1.333-1.333s-0.597-1.333-1.333-1.333v0zM4 16c-0.736 0-1.333 0.597-1.333 1.333s0.597 1.333 1.333 1.333v0h1.333c0.736 0 1.333-0.597 1.333-1.333s-0.597-1.333-1.333-1.333v0zM8 13.885c0.243 0.251 0.583 0.407 0.959 0.407 0.736 0 1.333-0.597 1.333-1.333 0-0.376-0.156-0.716-0.407-0.959l-0.943-0.943c-0.24-0.232-0.566-0.374-0.926-0.374-0.736 0-1.333 0.597-1.333 1.333 0 0.36 0.143 0.687 0.375 0.927l-0-0zM25.333 22.667c0-0.736-0.597-1.333-1.333-1.333v0h-16c-0.736 0-1.333 0.597-1.333 1.333s0.597 1.333 1.333 1.333v0h16c0.736 0 1.333-0.597 1.333-1.333v0zM20 29.333c0.736 0 1.333-0.597 1.333-1.333s-0.597-1.333-1.333-1.333v0h-8c-0.736 0-1.333 0.597-1.333 1.333s0.597 1.333 1.333 1.333v0zM16 10.667c0.736 0 1.333-0.597 1.333-1.333v0-2.115l0.391 0.391c0.24 0.232 0.566 0.374 0.926 0.374 0.736 0 1.333-0.597 1.333-1.333 0-0.36-0.143-0.687-0.375-0.927l-2.666-2.666c-0.241-0.241-0.575-0.39-0.943-0.39s-0.701 0.149-0.943 0.39l-2.667 2.667c-0.232 0.24-0.374 0.566-0.374 0.926 0 0.736 0.597 1.333 1.333 1.333 0.36 0 0.687-0.143 0.927-0.375l0.39-0.39v2.115c0 0.736 0.597 1.333 1.333 1.333v0z"></path>
</symbol>
<symbol id="icon-sunset" viewBox="0 0 32 32">
<path d="M10.667 18.667c0-2.946 2.388-5.333 5.333-5.333s5.333 2.388 5.333 5.333v0zM22.115 12c-0.251 0.243-0.407 0.583-0.407 0.959 0 0.736 0.597 1.333 1.333 1.333 0.376 0 0.716-0.156 0.959-0.407l0.943-0.943c0.232-0.24 0.374-0.566 0.374-0.926 0-0.736-0.597-1.333-1.333-1.333-0.36 0-0.687 0.143-0.927 0.375l0-0zM28 16h-1.333c-0.736 0-1.333 0.597-1.333 1.333s0.597 1.333 1.333 1.333v0h1.333c0.736 0 1.333-0.597 1.333-1.333s-0.597-1.333-1.333-1.333v0zM5.333 18.667c0.736 0 1.333-0.597 1.333-1.333s-0.597-1.333-1.333-1.333v0h-1.333c-0.736 0-1.333 0.597-1.333 1.333s0.597 1.333 1.333 1.333v0zM7.057 11.057c-0.241 0.241-0.39 0.575-0.39 0.943s0.149 0.701 0.39 0.943l0.943 0.943c0.243 0.251 0.583 0.407 0.959 0.407 0.736 0 1.333-0.597 1.333-1.333 0-0.376-0.156-0.716-0.407-0.959l-0.943-0.943c-0.241-0.241-0.575-0.39-0.943-0.39s-0.701 0.149-0.943 0.39v0zM8 24h16c0.736 0 1.333-0.597 1.333-1.333s-0.597-1.333-1.333-1.333v0h-16c-0.736 0-1.333 0.597-1.333 1.333s0.597 1.333 1.333 1.333v0zM21.333 28c0-0.736-0.597-1.333-1.333-1.333v0h-8c-0.736 0-1.333 0.597-1.333 1.333s0.597 1.333 1.333 1.333v0h8c0.736 0 1.333-0.597 1.333-1.333v0zM16 2.667c-0.736 0-1.333 0.597-1.333 1.333v0 2.115l-0.391-0.391c-0.24-0.232-0.566-0.374-0.926-0.374-0.736 0-1.333 0.597-1.333 1.333 0 0.36 0.143 0.687 0.375 0.927l2.666 2.666c0.241 0.241 0.575 0.39 0.943 0.39s0.701-0.149 0.943-0.39l2.667-2.667c0.251-0.243 0.407-0.583 0.407-0.959 0-0.736-0.597-1.333-1.333-1.333-0.376 0-0.716 0.156-0.959 0.407l-0.391 0.391v-2.115c0-0.736-0.597-1.333-1.333-1.333v0z"></path>
</symbol>
<symbol id="icon-thunder" viewBox="0 0 32 32">
<path fill="#91c0f8" style="fill: var(--color1, #91c0f8); stroke: var(--color2, #fff)" stroke="#fff" stroke-linejoin="round" stroke-linecap="butt" stroke-miterlimit="4" stroke-width="0.6" d="M19.31 12.62c0-1.38-1.11-2.46-2.46-2.46-0.3 0-0.57 0.060-0.84 0.15-0.090-1.020-0.93-1.86-1.98-1.86-1.11 0-2.010 0.9-2.010 2.010 0 0.24 0.060 0.48 0.12 0.69-0.090-0.030-0.21-0.030-0.3-0.030-1.11 0-2.010 0.9-2.010 2.010 0 1.080 0.87 1.98 1.95 2.010h5.16c1.32-0.15 2.37-1.2 2.37-2.52z"></path>
<path fill="#57a0ee" style="fill: var(--color3, #57a0ee); stroke: var(--color2, #fff)" stroke="#fff" stroke-linejoin="round" stroke-linecap="butt" stroke-miterlimit="4" stroke-width="0.6" d="M23.85 17.2c0-2.3-1.85-4.1-4.1-4.1-0.5 0-0.95 0.1-1.4 0.25-0.15-1.7-1.55-3.1-3.3-3.1-1.85 0-3.35 1.5-3.35 3.35 0 0.4 0.1 0.8 0.2 1.15-0.15-0.050-0.35-0.050-0.5-0.050-1.85 0-3.35 1.5-3.35 3.35 0 1.8 1.45 3.3 3.25 3.35h8.6c2.2-0.25 3.95-2 3.95-4.2z"></path>
<path fill="#ffa500" style="fill: var(--color4, #ffa500); stroke: var(--color2, #fff)" stroke="#fff" stroke-linejoin="miter" stroke-linecap="butt" stroke-miterlimit="4" stroke-width="0.5" d="M14.080 17.26h3.72l-2.46 4.32h2.34l-5.28 6.18 2.040-4.62h-2.28z"></path>
</symbol>
</defs>
</svg>
